<svg width="184" height="32" viewBox="0 0 184 32" fill="none" xmlns="http://www.w3.org/2000/svg">
<g clip-path="url(#clip0_19_1505)">
<path d="M10.8 17.7867L14.5733 14.0133L5.21332 4.66667C3.13332 6.74667 3.13332 10.12 5.21332 12.2133L10.8 17.7867ZM19.84 15.3733C21.88 16.32 24.7467 15.6533 26.8667 13.5333C29.4133 10.9867 29.9067 7.33334 27.9467 5.37334C26 3.42667 22.3467 3.90667 19.7867 6.45334C17.6667 8.57334 17 11.44 17.9467 13.48L4.93332 26.4933L6.81332 28.3733L16 19.2133L25.1733 28.3867L27.0533 26.5067L17.88 17.3333L19.84 15.3733Z" fill="#FFE478"/>
</g>
<path d="M37.44 7.724H44.448C46.304 7.724 47.736 8.18 48.744 9.092C49.752 10.004 50.256 11.324 50.256 13.052C50.256 14.284 49.952 15.332 49.344 16.196C48.736 17.06 47.872 17.676 46.752 18.044L50.16 24.5H47.04L43.8 18.356H40.488V24.5H37.44V7.724ZM43.896 15.836C44.888 15.836 45.688 15.604 46.296 15.14C46.904 14.676 47.208 13.98 47.208 13.052C47.208 11.18 46.104 10.244 43.896 10.244H40.488V15.836H43.896ZM57.69 24.86C55.546 24.86 53.85 24.324 52.602 23.252C51.354 22.18 50.73 20.684 50.73 18.764C50.73 16.876 51.282 15.38 52.386 14.276C53.49 13.172 55.066 12.62 57.114 12.62C58.458 12.62 59.602 12.876 60.546 13.388C61.506 13.9 62.226 14.604 62.706 15.5C63.186 16.38 63.426 17.388 63.426 18.524V19.916H53.61C53.818 21.628 55.306 22.484 58.074 22.484C58.81 22.484 59.562 22.42 60.33 22.292C61.098 22.164 61.77 21.988 62.346 21.764V24.092C61.802 24.316 61.098 24.5 60.234 24.644C59.386 24.788 58.538 24.86 57.69 24.86ZM60.57 17.852C60.538 16.94 60.21 16.236 59.586 15.74C58.978 15.244 58.138 14.996 57.066 14.996C56.01 14.996 55.178 15.252 54.57 15.764C53.962 16.276 53.642 16.972 53.61 17.852H60.57ZM71.619 24.86C70.275 24.86 69.091 24.62 68.067 24.14C67.059 23.66 66.275 22.964 65.715 22.052C65.155 21.14 64.875 20.044 64.875 18.764C64.875 17.484 65.155 16.388 65.715 15.476C66.291 14.548 67.083 13.844 68.091 13.364C69.115 12.868 70.307 12.62 71.667 12.62C73.459 12.62 74.891 12.972 75.963 13.676V16.1C74.923 15.364 73.595 14.996 71.979 14.996C70.747 14.996 69.763 15.308 69.027 15.932C68.307 16.54 67.947 17.484 67.947 18.764C67.947 20.028 68.307 20.964 69.027 21.572C69.763 22.18 70.731 22.484 71.931 22.484C73.547 22.484 74.939 22.1 76.107 21.332V23.732C75.531 24.116 74.875 24.396 74.139 24.572C73.419 24.764 72.579 24.86 71.619 24.86ZM79.7274 10.964C79.2474 10.964 78.8394 10.804 78.5034 10.484C78.1834 10.164 78.0234 9.764 78.0234 9.284C78.0234 8.804 78.1834 8.404 78.5034 8.084C78.8394 7.748 79.2474 7.58 79.7274 7.58C80.2074 7.58 80.6154 7.748 80.9514 8.084C81.2874 8.404 81.4554 8.804 81.4554 9.284C81.4554 9.764 81.2874 10.164 80.9514 10.484C80.6154 10.804 80.2074 10.964 79.7274 10.964ZM78.1914 12.98H81.2634V24.5H78.1914V12.98ZM83.8481 12.98H86.7761V14.372C87.4001 13.78 88.0801 13.34 88.8161 13.052C89.5521 12.764 90.3921 12.62 91.3361 12.62C92.5041 12.62 93.5441 12.876 94.4561 13.388C95.3841 13.884 96.1041 14.596 96.6161 15.524C97.1441 16.436 97.4081 17.5 97.4081 18.716C97.4081 19.916 97.1441 20.98 96.6161 21.908C96.1041 22.836 95.3841 23.564 94.4561 24.092C93.5441 24.604 92.5041 24.86 91.3361 24.86C90.4561 24.86 89.6241 24.74 88.8401 24.5C88.0721 24.244 87.4161 23.868 86.8721 23.372V29.756H83.8481V12.98ZM90.5921 22.484C91.6801 22.484 92.5761 22.132 93.2801 21.428C93.9841 20.724 94.3361 19.82 94.3361 18.716C94.3361 17.612 93.9841 16.716 93.2801 16.028C92.5761 15.34 91.6801 14.996 90.5921 14.996C89.7281 14.996 88.9601 15.228 88.2881 15.692C87.6161 16.156 87.1441 16.78 86.8721 17.564V19.892C87.1281 20.676 87.5921 21.308 88.2641 21.788C88.9521 22.252 89.7281 22.484 90.5921 22.484ZM105.809 24.86C103.665 24.86 101.969 24.324 100.721 23.252C99.4731 22.18 98.8491 20.684 98.8491 18.764C98.8491 16.876 99.4011 15.38 100.505 14.276C101.609 13.172 103.185 12.62 105.233 12.62C106.577 12.62 107.721 12.876 108.665 13.388C109.625 13.9 110.345 14.604 110.825 15.5C111.305 16.38 111.545 17.388 111.545 18.524V19.916H101.729C101.937 21.628 103.425 22.484 106.193 22.484C106.929 22.484 107.681 22.42 108.449 22.292C109.217 22.164 109.889 21.988 110.465 21.764V24.092C109.921 24.316 109.217 24.5 108.353 24.644C107.505 24.788 106.657 24.86 105.809 24.86ZM108.689 17.852C108.657 16.94 108.329 16.236 107.705 15.74C107.097 15.244 106.257 14.996 105.185 14.996C104.129 14.996 103.297 15.252 102.689 15.764C102.081 16.276 101.761 16.972 101.729 17.852H108.689ZM113.474 7.724H124.826V10.268H116.522V14.972H122.69V17.252H116.522V24.5H113.474V7.724ZM127.12 10.964C126.64 10.964 126.232 10.804 125.896 10.484C125.576 10.164 125.416 9.764 125.416 9.284C125.416 8.804 125.576 8.404 125.896 8.084C126.232 7.748 126.64 7.58 127.12 7.58C127.6 7.58 128.008 7.748 128.344 8.084C128.68 8.404 128.848 8.804 128.848 9.284C128.848 9.764 128.68 10.164 128.344 10.484C128.008 10.804 127.6 10.964 127.12 10.964ZM125.584 12.98H128.656V24.5H125.584V12.98ZM131.241 12.98H134.169V14.54C134.713 13.884 135.361 13.404 136.113 13.1C136.865 12.78 137.657 12.62 138.489 12.62C140.041 12.62 141.201 13.044 141.969 13.892C142.737 14.724 143.121 15.836 143.121 17.228V24.5H140.097V17.516C140.097 15.836 139.313 14.996 137.745 14.996C137.057 14.996 136.409 15.164 135.801 15.5C135.193 15.82 134.681 16.308 134.265 16.964V24.5H131.241V12.98ZM151.001 24.86C149.833 24.86 148.785 24.612 147.857 24.116C146.945 23.604 146.225 22.892 145.697 21.98C145.185 21.052 144.929 19.98 144.929 18.764C144.929 17.564 145.185 16.5 145.697 15.572C146.225 14.644 146.945 13.924 147.857 13.412C148.785 12.884 149.833 12.62 151.001 12.62C152.889 12.62 154.377 13.116 155.465 14.108V6.764H158.489V24.5H155.561V23.156C154.905 23.764 154.225 24.204 153.521 24.476C152.817 24.732 151.977 24.86 151.001 24.86ZM151.745 22.484C152.609 22.484 153.377 22.252 154.049 21.788C154.721 21.324 155.193 20.7 155.465 19.916V17.588C155.209 16.804 154.737 16.18 154.049 15.716C153.377 15.236 152.609 14.996 151.745 14.996C150.657 14.996 149.761 15.348 149.057 16.052C148.353 16.756 148.001 17.66 148.001 18.764C148.001 19.868 148.353 20.764 149.057 21.452C149.761 22.14 150.657 22.484 151.745 22.484ZM167.37 24.86C165.226 24.86 163.53 24.324 162.282 23.252C161.034 22.18 160.41 20.684 160.41 18.764C160.41 16.876 160.962 15.38 162.066 14.276C163.17 13.172 164.746 12.62 166.794 12.62C168.138 12.62 169.282 12.876 170.226 13.388C171.186 13.9 171.906 14.604 172.386 15.5C172.866 16.38 173.106 17.388 173.106 18.524V19.916H163.29C163.498 21.628 164.986 22.484 167.754 22.484C168.49 22.484 169.242 22.42 170.01 22.292C170.778 22.164 171.45 21.988 172.026 21.764V24.092C171.482 24.316 170.778 24.5 169.914 24.644C169.066 24.788 168.218 24.86 167.37 24.86ZM170.25 17.852C170.218 16.94 169.89 16.236 169.266 15.74C168.658 15.244 167.818 14.996 166.746 14.996C165.69 14.996 164.858 15.252 164.25 15.764C163.642 16.276 163.322 16.972 163.29 17.852H170.25ZM175.035 12.98H177.963V14.828C178.427 14.204 179.083 13.74 179.931 13.436C180.795 13.132 181.779 12.98 182.883 12.98V15.284C181.715 15.284 180.699 15.468 179.835 15.836C178.987 16.188 178.395 16.748 178.059 17.516V24.5H175.035V12.98Z" fill="#FFE478"/>
<defs>
<clipPath id="clip0_19_1505">
<rect width="32" height="32" fill="white"/>
</clipPath>
</defs>
</svg>
