<svg width="19" height="18" viewBox="0 0 19 18" fill="none" xmlns="http://www.w3.org/2000/svg">
<path d="M8.97798 0.278677C9.16139 -0.0929075 9.69127 -0.0929075 9.87468 0.278677L12.4001 5.39491C12.4729 5.54233 12.6135 5.64456 12.7761 5.66834L18.4244 6.49392C18.8344 6.55384 18.9978 7.05776 18.701 7.34684L14.6147 11.3269C14.4968 11.4417 14.443 11.6073 14.4708 11.7696L15.435 17.3917C15.5051 17.8002 15.0763 18.1116 14.7095 17.9187L9.65906 15.2627C9.51336 15.1861 9.3393 15.1861 9.19361 15.2627L4.14315 17.9187C3.77633 18.1116 3.34756 17.8002 3.41762 17.3917L4.38187 11.7696C4.4097 11.6073 4.35587 11.4417 4.23794 11.3269L0.15167 7.34684C-0.145127 7.05776 0.018265 6.55384 0.428222 6.49392L6.07651 5.66834C6.23919 5.64456 6.37978 5.54233 6.45255 5.39491L8.97798 0.278677Z" fill="#FFE478"/>
</svg>
